<svg xmlns="http://www.w3.org/2000/svg" version="1.1" xmlns:xlink="http://www.w3.org/1999/xlink" xmlns:svgjs="http://svgjs.dev/svgjs" width="1500" height="935" viewBox="0 0 1500 935"><g transform="matrix(1,0,0,1,-0.9090909090909918,0.3785425101214628)"><svg viewBox="0 0 396 247" data-background-color="#ffffff" preserveAspectRatio="xMidYMid meet" height="935" width="1500" xmlns="http://www.w3.org/2000/svg" xmlns:xlink="http://www.w3.org/1999/xlink"><g id="tight-bounds" transform="matrix(1,0,0,1,0.2400000000000091,-0.09999999999999432)"><svg viewBox="0 0 395.52 247.2" height="247.2" width="395.52"><g><svg></svg></g><g><svg viewBox="0 0 395.52 247.2" height="247.2" width="395.52"><mask id="bcc30025-a745-47e5-a199-4db44c8dbbca"><rect width="395.52" height="247.2" fill="white"></rect><g transform="matrix(1,0,0,1,0,64.75145798737961)" id="clone"><svg viewBox="0 0 395.52 117.69708402524077" height="117.69708402524077" width="395.52"><g><svg viewBox="0 0 395.52 117.69708402524077" height="117.69708402524077" width="395.52"><g><svg viewBox="0 0 395.52 117.69708402524077" height="117.69708402524077" width="395.52"><g><svg viewBox="0 0 395.52 117.69708402524077" height="117.69708402524077" width="395.52"><g id="SvgjsG2346"><svg viewBox="0 0 395.52 117.69708402524077" height="117.69708402524077" width="395.52" id="SvgjsSvg2345"><g><svg viewBox="0 0 395.52 117.69708402524077" height="117.69708402524077" width="395.52"><g transform="matrix(1,0,0,1,0,0)"><svg width="395.52" viewBox="-1.8 -41.85 151.53 45.800000000000004" height="117.69708402524077" data-palette-color="#0023ff"><path d="M6.45 0.6Q6.15 0.6 5.95 0.23 5.75-0.15 5.75-0.6L5.75-0.6Q5.75-2.2 5.9-5.4L5.9-5.4 6-10.25Q6-10.95 5.85-12.3L5.85-12.3Q5.65-13.5 5.65-14.3L5.65-14.3Q5.65-15.15 5.35-16.65L5.35-16.65Q5.05-18.25 5.05-18.95L5.05-18.95Q5.05-19.55 4.55-21.8L4.55-21.8Q4.4-22.25 4.35-22.53 4.3-22.8 4.25-22.9L4.25-22.9Q4.05-24.3 3.6-26.35L3.6-26.35Q2.75-31 1.95-33.7L1.95-33.7Q1.2-36.1 1.2-36.95L1.2-36.95Q1.2-37.3 1.5-37.52 1.8-37.75 2.2-37.75L2.2-37.75 2.8-37.35Q2.95-35.1 4.15-29.33 5.35-23.55 5.95-22.7L5.95-22.7Q6.05-22.95 6.45-27.05L6.45-27.05Q6.8-30.7 7.45-34.3L7.45-34.3Q8.05-37.6 8.9-37.6L8.9-37.6Q9.15-37.6 9.3-37.58 9.45-37.55 9.55-37.45L9.55-37.45Q9.65-37.35 9.65-37.05L9.65-37.05Q9.65-36.6 9.45-36L9.45-36 9.25-35 7.95-27.55Q7.7-26.1 7.5-23.98 7.3-21.85 7.3-20.25L7.3-20.25Q7.3-19.8 7.35-19.45L7.35-19.45Q7.4-19.05 7.4-18.6L7.4-18.6 7.1-17.85 7.1-17.45 7.2-15.5 7.3-14.45Q7.45-12.45 7.45-11.45L7.45-11.45Q7.45-3.55 7.35-1.35L7.35-1.35 7.5-1.2Q7.5-1.1 7.55-1.05L7.55-1.05 7.55-0.85Q7.55-0.25 7.28 0.18 7 0.6 6.45 0.6L6.45 0.6ZM21.4 0.95Q15.55 0.95 15.55-17.45L15.55-17.45 15.55-19.2Q15.55-33.15 19.15-33.15L19.15-33.15Q19.4-33.15 19.85-33L19.85-33Q21.45-32.45 23-32.3L23-32.3Q23.95-32.1 24.9-30.35L24.9-30.35Q25.95-28.55 26.47-25.6 27-22.65 27-19.55L27-19.55 26.9-19.3Q26.9-17.65 26.95-16.35L26.95-16.35 27-13.35Q27-10.8 26.8-8.75L26.8-8.75Q26.5-5.65 25.8-3.4L25.8-3.4Q25.35-2.05 24.77-1.15 24.2-0.25 23.35 0.35L23.35 0.35Q22.55 0.95 21.4 0.95L21.4 0.95ZM21.2-0.5Q23.15-0.5 24.1-3.25L24.1-3.25Q25.05-6.05 25.25-8.95L25.25-8.95Q25.45-11.95 25.45-13.75L25.45-13.75Q25.45-15.75 25.15-19.65L25.15-19.65Q24.9-24 24.9-25.55L24.9-25.55 24.7-25.95 24.8-26.2Q24.8-28.4 23.57-30 22.35-31.6 20.6-31.6L20.6-31.6Q18.3-31.6 17.85-29.4L17.85-29.4Q17.75-28.65 17.65-27.25L17.65-27.25Q17.65-23.55 17.35-22.2L17.35-22.2Q17.35-21.45 17.2-19.85L17.2-19.85 17.1-17.5Q17.1-16.4 17.15-15.55L17.15-15.55 17.2-13.55Q17.2-11.2 17.6-8.15L17.6-8.15Q17.9-5.9 18.3-4.35 18.7-2.8 19.45-1.7L19.45-1.7Q20.2-0.5 21.2-0.5L21.2-0.5ZM38.74 0.75Q37.95 0.75 37.02 0.23 36.09-0.3 35.49-1L35.49-1Q34.8-1.9 34.39-6.05 33.99-10.2 33.89-15.55L33.89-15.55Q33.89-16.75 33.84-17.35L33.84-17.35Q33.74-29.9 33.45-32.2L33.45-32.2 33.74-32.9Q34.89-32.75 34.89-30.15L34.89-30.15 35.05-16.9Q35.05-15.5 35.3-11.6L35.3-11.6Q35.59-8.1 35.59-6.3L35.59-6.3Q35.59-0.6 39.34-0.6L39.34-0.6Q41.64-0.6 42.3-11.1L42.3-11.1 42.34-12.1Q42.7-25.85 42.7-32.45L42.7-32.45 42.64-32.9Q42.59-33.1 42.59-33.35L42.59-33.35Q42.59-33.9 43.45-33.9L43.45-33.9Q44.05-33.9 44.2-33.6L44.2-33.6Q44.3-33.1 44.3-31.85L44.3-31.85Q44.3-28.05 44-26.75L44-26.75 44.05-26.45Q44.05-25.8 43.89-24.45L43.89-24.45 43.8-22.45 43.8-21.95Q43.84-21.75 43.84-21.45L43.84-21.45Q43.75-20.25 43.75-19.15L43.75-19.15Q43.7-18.8 43.7-18.05L43.7-18.05Q43.59-13.3 43.5-9.8L43.5-9.8Q43.34-5.45 42.3-2.45L42.3-2.45Q41.2 0.75 38.74 0.75L38.74 0.75ZM55.64-0.3L55.09-0.7 55.04-2.55Q54.99-3.35 54.99-4.35L54.99-4.35Q54.99-4.85 55.04-5.2L55.04-5.2 55.09-6.1Q55.09-6.6 54.89-7.3L54.89-7.3Q54.89-10.65 54.39-19.75L54.39-19.75Q53.89-28.55 53.84-31.7L53.84-31.7Q50.74-31.7 49.69-31.85L49.69-31.85Q48.69-32.1 48.69-32.65L48.69-32.65Q48.94-33.2 49.64-33.2L49.64-33.2Q51.14-33.2 53.99-33L53.99-33Q56.59-32.75 58.34-32.75L58.34-32.75 59.39-32.75 60.44-32.8Q61.34-32.8 61.34-32.15L61.34-32.15Q61.34-31.85 61.02-31.68 60.69-31.5 60.24-31.5L60.24-31.5Q59.24-31.5 58.14-31.6L58.14-31.6 55.99-31.7Q55.79-31.7 55.79-31.55L55.79-31.55Q55.74-31.4 55.74-30.6L55.74-30.6Q55.74-25.75 56.34-15.9L56.34-15.9Q56.89-5.7 56.89-1.25L56.89-1.25Q56.89-0.9 56.47-0.6 56.04-0.3 55.64-0.3L55.64-0.3ZM75.64 0.55Q75.64 0.05 74.14 0.05L74.14 0.05Q73.89-9.2 73.89-13.35L73.89-13.35 73.74-13.55 73.94-14Q73.94-14.9 73.74-15.85L73.74-15.85 72.99-16.05Q72.54-15.9 71.99-15.9L71.99-15.9Q71.59-15.9 70.34-16.15L70.34-16.15Q69.49-16.4 68.79-16.4L68.79-16.4 68.24-16.2Q68.24-14.45 68.19-13.05L68.19-13.05Q68.14-11.65 68.14-9.9L68.14-9.9 68.24-9.7Q68.24-8.3 68.39-5.5L68.39-5.5Q68.54-2.75 68.54-1.35L68.54-1.35Q68.54-0.8 68.34-0.43 68.14-0.05 67.74-0.05L67.74-0.05Q66.64-0.05 66.64-3.05L66.64-3.05Q66.64-5.6 66.69-7.65L66.69-7.65 66.74-12.2Q66.74-16.75 66.59-17.1L66.59-17.1Q66.84-17.6 66.84-20.4L66.84-20.4Q66.84-22.8 66.64-26.25L66.64-26.25 66.54-28.2 66.44-32.1Q66.44-32.45 66.69-32.75 66.94-33.05 67.29-33.05L67.29-33.05Q68.29-33.05 68.29-30.15L68.29-30.15Q68.29-26.75 68.24-24L68.24-24Q68.14-21.25 68.14-17.95L68.14-17.95Q68.14-17.35 71.94-17.35L71.94-17.35 72.14-17.35Q73.09-17.35 73.52-17.73 73.94-18.1 73.94-19L73.94-19Q73.94-21.65 73.59-25.9L73.59-25.9Q73.29-30.5 73.29-32.8L73.29-32.8Q73.29-33.1 73.54-33.33 73.79-33.55 74.14-33.55L74.14-33.55 74.59-33.4Q74.94-33.35 75.04-33.25L75.04-33.25Q75.04-29.35 75.34-21.6L75.34-21.6Q75.64-13.8 75.64-9.9L75.64-9.9Q75.64-4 75.99 0L75.99 0 75.64 0.55ZM72.49-17.95L72.49-18.05 72.59-17.95 72.49-17.95ZM86.94 0.65Q85.99 0.65 85.99-0.45L85.99-0.45 85.99-1.05Q86.04-1.25 86.04-1.55L86.04-1.55 86.04-1.8 85.14-7.85Q84.79-9.75 84.69-10.6L84.69-10.6Q84.24-14.1 83.74-18.4L83.74-18.4Q83.34-21.8 82.34-29.6L82.34-29.6 82.19-30.75Q81.44-36.4 81.09-36.95L81.09-36.95Q81.24-37.2 81.54-37.4 81.84-37.6 82.14-37.6L82.14-37.6Q82.89-37.6 83.16-37.35 83.44-37.1 83.44-36.45L83.44-36.45 83.44-36 83.44-35.5 83.44-34.95Q84.99-18.6 86.69-4.35L86.69-4.35 86.79-4.35Q86.94-5.8 87.39-12.3L87.39-12.3 87.49-13.75Q87.84-20.1 87.89-20.45L87.89-20.45Q88.04-21.95 88.49-24.85L88.49-24.85 89.09-28.9 89.24-31.2Q89.29-31.8 89.31-32.23 89.34-32.65 89.39-32.85L89.39-32.85 89.44-33.5Q89.44-33.55 89.51-33.65 89.59-33.75 89.74-33.85L89.74-33.85Q90.44-33.85 90.64-33.5L90.64-33.5Q90.79-33.35 90.84-33.18 90.89-33 90.89-32.75L90.89-32.75Q90.99-32.3 90.99-32.3L90.99-32.3Q91.49-29.65 93.14-18.5 94.79-7.35 95.14-3.8L95.14-3.8 95.29-3.7 97.14-23.95Q97.24-25.85 97.79-29.95L97.79-29.95Q98.29-34.1 98.29-36.7L98.29-36.7 98.24-37.2 98.24-37.65Q98.24-38.3 98.54-38.58 98.84-38.85 99.54-38.85L99.54-38.85Q99.84-38.85 100.16-38.6 100.49-38.35 100.49-38.05L100.49-38.05Q100.49-37.55 99.94-37.1L99.94-37.1Q99.99-37.05 99.99-36.8L99.99-36.8Q99.99-36.5 99.91-36.18 99.84-35.85 99.79-35.7L99.79-35.7Q99.24-31.2 98.44-22.45L98.44-22.45 97.44-12.1 97.04-8.15 96.44-3.1 96.19-0.55Q96.19 0.05 96.01 0.35 95.84 0.65 95.29 0.65L95.29 0.65Q94.49 0.65 94.34 0.05L94.34 0.05Q94.24-0.25 94.14-1.35L94.14-1.35 94.09-2.1Q92.89-9.8 90.49-29.5L90.49-29.5 90.34-29.6 90.29-29.55 90.29-29.5 87.79-2.2 87.79-1.3Q87.79 0.65 86.94 0.65L86.94 0.65ZM115.89 0.45Q115.14 0.45 114.94 0.28 114.74 0.1 114.64-0.65L114.64-0.65Q114.19-4.3 114.09-5.2L114.09-5.2 113.84-7.2Q112.74-7.45 111.34-7.45L111.34-7.45 109.54-7.55Q108.34-7.7 107.79-7.7L107.79-7.7Q107.49-7.7 107.44-7.45L107.44-7.45Q107.44-7.3 107.39-7.3L107.39-7.3 107.29-6.3Q107.24-5.4 106.74-2.7L106.74-2.7Q106.49-1.35 106.14-0.6L106.14-0.6Q105.74 0.25 105.39 0.25L105.39 0.25Q105.09 0.25 104.74-0.03 104.39-0.3 104.39-0.6L104.39-0.6 104.44-0.75 104.49-0.9Q105.39-4.45 105.99-7.95L105.99-7.95 106.59-11.05 107.19-14.85Q107.19-14.85 107.74-18.15L107.74-18.15Q107.99-19.5 108.64-22.5L108.64-22.5Q109.34-25.9 109.49-27.15L109.49-27.15Q109.54-27.3 109.69-29L109.69-29Q109.89-30.9 110.04-31.8L110.04-31.8Q110.19-33.1 110.34-33.3L110.34-33.3 110.69-33.3Q110.84-33.25 111.04-33.25L111.04-33.25Q111.64-33.25 111.94-33.55L111.94-33.55Q112.29-33.55 112.56-33.33 112.84-33.1 112.84-32.8L112.84-32.8Q112.84-30.4 113.19-27.3L113.19-27.3Q113.39-25.7 113.49-24.65L113.49-24.65Q114.04-18.2 116.29-0.45L116.29-0.45 116.29-0.3Q116.29 0.2 115.89 0.45L115.89 0.45ZM113.09-8.55L113.59-8.55Q113.09-15.75 111.69-29.8L111.69-29.8 108.99-16.45Q107.84-10.7 107.84-9.2L107.84-9.2Q107.84-8.95 109.74-8.75 111.64-8.55 113.09-8.55L113.09-8.55ZM126.13 0.6L125.58 0.15Q125.58-3.7 124.36-11.2 123.13-18.7 121.13-27.6L121.13-27.6 120.73-29.15 120.08-31.45Q119.78-32.5 119.78-32.75L119.78-32.75Q119.78-32.9 120.01-33.13 120.23-33.35 120.43-33.35L120.43-33.35Q121.13-33.35 121.53-31.8L121.53-31.8Q121.73-31.15 121.91-30.33 122.08-29.5 122.18-29.15L122.18-29.15Q122.28-28.4 122.33-28.25L122.33-28.25Q123.28-24.4 123.48-23.35L123.48-23.35 123.98-20.8 124.43-18.4 124.88-15.85Q125.03-14.5 125.28-13.5L125.28-13.5 126.03-8.6Q126.03-8.4 126.38-6.05L126.38-6.05 126.73-3.6Q127.73-6.85 128.43-13.5L128.43-13.5Q129.13-19.7 130.43-25.95L130.43-25.95Q131.53-31.35 131.98-33.8L131.98-33.8 132.63-34.05Q132.83-34 133.01-33.85 133.18-33.7 133.18-33.55L133.18-33.55Q133.18-32.45 132.73-30.55L132.73-30.55 132.43-29.25 131.58-25.3Q130.83-22.05 130.56-20.3 130.28-18.55 129.93-15.25L129.93-15.25 129.83-14.1Q129.58-11.4 129.46-10.45 129.33-9.5 128.88-8L128.88-8Q128.48-6.5 128.23-5.35L128.23-5.35 128.13-4.2Q128.03-2.45 127.73-1.1L127.73-1.1Q127.33 0.6 126.13 0.6L126.13 0.6ZM126.68-3.25L126.68-3.45 126.63-3.35 126.68-3.25ZM140.43 0.65Q139.53 0.65 139.43-0.4L139.43-0.4 139.43-1.05Q139.48-1.3 139.48-1.65L139.48-1.65 139.28-1.85Q139.68-2.9 139.68-3.9L139.68-3.9Q139.68-5.05 139.53-7.2L139.53-7.2 139.43-10.5Q139.43-13 139.58-18L139.58-18Q139.78-22.45 139.78-25.55L139.78-25.55 139.68-28.55Q139.58-29.9 139.58-31.55L139.58-31.55Q139.58-32.3 139.93-32.63 140.28-32.95 141.03-32.95L141.03-32.95Q141.53-32.95 141.83-32.65L141.83-32.65Q141.93-32.6 143.28-32.45L143.28-32.45Q144.53-32.3 145.43-32L145.43-32Q146.38-31.7 146.38-31.25L146.38-31.25Q146.38-30.75 145.43-30.25L145.43-30.25Q142.58-31.2 141.38-31.2L141.38-31.2 141.13-30.9Q141.18-30.45 141.18-28.75L141.18-28.75Q141.18-26.6 141.08-24.9L141.08-24.9Q141.03-23.15 141.03-21L141.03-21Q141.03-19.6 141.73-19.6L141.73-19.6 142.53-19.65Q142.93-19.7 143.38-19.7L143.38-19.7Q145.33-19.7 145.33-18.8L145.33-18.8Q145.33-18.25 145.08-17.88 144.83-17.5 144.33-17.5L144.33-17.5Q143.58-17.5 143.18-17.9L143.18-17.9 141.58-18.15 141.33-18.15 141.08-17.9 141.08-17.75Q141.18-16.9 141.18-13.8L141.18-13.8Q141.18-11.85 141.13-10.25L141.13-10.25 141.08-6.7Q141.08-4.75 141.23-2.7L141.23-2.7Q141.28-1.55 141.73-1.18 142.18-0.8 143.38-0.8L143.38-0.8 144.28-0.85Q144.73-0.9 145.28-0.9L145.28-0.9Q146.73-0.9 146.73-0.25L146.73-0.25Q146.73 0.65 144.53 0.65L144.53 0.65 140.43 0.65Z" opacity="1" transform="matrix(1,0,0,1,0,0)" fill="black" class="wordmark-text-0" id="SvgjsPath2344" stroke-width="5" stroke="black" stroke-linejoin="round"></path></svg></g></svg></g></svg></g></svg></g></svg></g></svg></g></svg></g></mask><g mask="url(#bcc30025-a745-47e5-a199-4db44c8dbbca)"><g><path d="M204.367 247.2c-1.289 0-2.363-0.795-3.223-2.385-0.859-1.633-1.289-3.416-1.289-5.35v0c0-6.876 0.322-17.189 0.967-30.94v0l0.644-31.263c0-3.008-0.322-7.413-0.966-13.214v0c-0.859-5.157-1.289-9.454-1.29-12.892v0c0-3.653-0.645-8.702-1.933-15.148v0c-1.289-6.876-1.934-11.817-1.934-14.825v0c0-2.578-1.074-8.702-3.223-18.371v0c-0.645-1.934-1.074-3.502-1.289-4.706-0.215-1.16-0.43-1.955-0.645-2.384v0c-0.859-6.016-2.256-13.429-4.19-22.239v0c-3.653-19.982-7.198-35.775-10.635-47.377v0c-3.223-10.313-4.834-17.296-4.835-20.949v0c0-1.504 0.645-2.729 1.934-3.674 1.289-0.988 2.793-1.483 4.512-1.483v0l3.868 2.578c0.645 9.669 3.545 26.901 8.701 51.696 5.157 24.838 9.024 39.084 11.603 42.737v0c0.43-1.074 1.504-10.421 3.223-28.04v0c1.504-15.685 3.653-31.263 6.446-46.733v0c2.578-14.181 5.694-21.271 9.346-21.271v0c1.074 0 1.934 0.043 2.579 0.129 0.645 0.129 1.182 0.408 1.611 0.838v0c0.43 0.43 0.645 1.289 0.645 2.578v0c0 1.934-0.43 4.19-1.289 6.768v0l-1.289 6.446-8.38 48.022c-1.074 6.231-2.041 13.902-2.901 23.012-0.859 9.153-1.289 17.168-1.289 24.043v0c0 1.934 0.107 3.653 0.322 5.157v0c0.215 1.719 0.322 3.545 0.323 5.479v0l-1.934 4.834v2.579l0.644 12.569 0.645 6.768c0.645 8.595 0.967 15.04 0.967 19.338v0c0 33.948-0.215 55.65-0.645 65.104v0l0.967 0.966c0 0.43 0.107 0.752 0.323 0.967v0 1.289c0 2.578-0.58 4.791-1.741 6.64-1.203 1.805-2.987 2.707-5.35 2.707z" fill="#0023ff" fill-rule="nonzero" stroke="none" stroke-width="1" stroke-linecap="butt" stroke-linejoin="miter" stroke-miterlimit="10" stroke-dasharray="" stroke-dashoffset="0" font-family="none" font-weight="none" font-size="none" text-anchor="none" style="mix-blend-mode: normal" data-fill-palette-color="tertiary"></path></g></g><g transform="matrix(1,0,0,1,0,64.75145798737961)"><svg viewBox="0 0 395.52 117.69708402524077" height="117.69708402524077" width="395.52"><g><svg viewBox="0 0 395.52 117.69708402524077" height="117.69708402524077" width="395.52"><g><svg viewBox="0 0 395.52 117.69708402524077" height="117.69708402524077" width="395.52"><g><svg viewBox="0 0 395.52 117.69708402524077" height="117.69708402524077" width="395.52"><g id="textblocktransform"><svg viewBox="0 0 395.52 117.69708402524077" height="117.69708402524077" width="395.52" id="textblock"><g><svg viewBox="0 0 395.52 117.69708402524077" height="117.69708402524077" width="395.52"><g transform="matrix(1,0,0,1,0,0)"><svg width="395.52" viewBox="-1.8 -41.85 151.53 45.800000000000004" height="117.69708402524077" data-palette-color="#0023ff"><path d="M6.45 0.6Q6.15 0.6 5.95 0.23 5.75-0.15 5.75-0.6L5.75-0.6Q5.75-2.2 5.9-5.4L5.9-5.4 6-10.25Q6-10.95 5.85-12.3L5.85-12.3Q5.65-13.5 5.65-14.3L5.65-14.3Q5.65-15.15 5.35-16.65L5.35-16.65Q5.05-18.25 5.05-18.95L5.05-18.95Q5.05-19.55 4.55-21.8L4.55-21.8Q4.4-22.25 4.35-22.53 4.3-22.8 4.25-22.9L4.25-22.9Q4.05-24.3 3.6-26.35L3.6-26.35Q2.75-31 1.95-33.7L1.95-33.7Q1.2-36.1 1.2-36.95L1.2-36.95Q1.2-37.3 1.5-37.52 1.8-37.75 2.2-37.75L2.2-37.75 2.8-37.35Q2.95-35.1 4.15-29.33 5.35-23.55 5.95-22.7L5.95-22.7Q6.05-22.95 6.45-27.05L6.45-27.05Q6.8-30.7 7.45-34.3L7.45-34.3Q8.05-37.6 8.9-37.6L8.9-37.6Q9.15-37.6 9.3-37.58 9.45-37.55 9.55-37.45L9.55-37.45Q9.65-37.35 9.65-37.05L9.65-37.05Q9.65-36.6 9.45-36L9.45-36 9.25-35 7.95-27.55Q7.7-26.1 7.5-23.98 7.3-21.85 7.3-20.25L7.3-20.25Q7.3-19.8 7.35-19.45L7.35-19.45Q7.4-19.05 7.4-18.6L7.4-18.6 7.1-17.85 7.1-17.45 7.2-15.5 7.3-14.45Q7.45-12.45 7.45-11.45L7.45-11.45Q7.45-3.55 7.35-1.35L7.35-1.35 7.5-1.2Q7.5-1.1 7.55-1.05L7.55-1.05 7.55-0.85Q7.55-0.25 7.28 0.18 7 0.6 6.45 0.6L6.45 0.6ZM21.4 0.95Q15.55 0.95 15.55-17.45L15.55-17.45 15.55-19.2Q15.55-33.15 19.15-33.15L19.15-33.15Q19.4-33.15 19.85-33L19.85-33Q21.45-32.45 23-32.3L23-32.3Q23.95-32.1 24.9-30.35L24.9-30.35Q25.95-28.55 26.47-25.6 27-22.65 27-19.55L27-19.55 26.9-19.3Q26.9-17.65 26.95-16.35L26.95-16.35 27-13.35Q27-10.8 26.8-8.75L26.8-8.75Q26.5-5.65 25.8-3.4L25.8-3.4Q25.35-2.05 24.77-1.15 24.2-0.25 23.35 0.35L23.35 0.35Q22.55 0.95 21.4 0.95L21.4 0.95ZM21.2-0.5Q23.15-0.5 24.1-3.25L24.1-3.25Q25.05-6.05 25.25-8.95L25.25-8.95Q25.45-11.95 25.45-13.75L25.45-13.75Q25.45-15.75 25.15-19.65L25.15-19.65Q24.9-24 24.9-25.55L24.9-25.55 24.7-25.95 24.8-26.2Q24.8-28.4 23.57-30 22.35-31.6 20.6-31.6L20.6-31.6Q18.3-31.6 17.85-29.4L17.85-29.4Q17.75-28.65 17.65-27.25L17.65-27.25Q17.65-23.55 17.35-22.2L17.35-22.2Q17.35-21.45 17.2-19.85L17.2-19.85 17.1-17.5Q17.1-16.4 17.15-15.55L17.15-15.55 17.2-13.55Q17.2-11.2 17.6-8.15L17.6-8.15Q17.9-5.9 18.3-4.35 18.7-2.8 19.45-1.7L19.45-1.7Q20.2-0.5 21.2-0.5L21.2-0.5ZM38.74 0.75Q37.95 0.75 37.02 0.23 36.09-0.3 35.49-1L35.49-1Q34.8-1.9 34.39-6.05 33.99-10.2 33.89-15.55L33.89-15.55Q33.89-16.75 33.84-17.35L33.84-17.35Q33.74-29.9 33.45-32.2L33.45-32.2 33.74-32.9Q34.89-32.75 34.89-30.15L34.89-30.15 35.05-16.9Q35.05-15.5 35.3-11.6L35.3-11.6Q35.59-8.1 35.59-6.3L35.59-6.3Q35.59-0.6 39.34-0.6L39.34-0.6Q41.64-0.6 42.3-11.1L42.3-11.1 42.34-12.1Q42.7-25.85 42.7-32.45L42.7-32.45 42.64-32.9Q42.59-33.1 42.59-33.35L42.59-33.35Q42.59-33.9 43.45-33.9L43.45-33.9Q44.05-33.9 44.2-33.6L44.2-33.6Q44.3-33.1 44.3-31.85L44.3-31.85Q44.3-28.05 44-26.75L44-26.75 44.05-26.45Q44.05-25.8 43.89-24.45L43.89-24.45 43.8-22.45 43.8-21.95Q43.84-21.75 43.84-21.45L43.84-21.45Q43.75-20.25 43.75-19.15L43.75-19.15Q43.7-18.8 43.7-18.05L43.7-18.05Q43.59-13.3 43.5-9.8L43.5-9.8Q43.34-5.45 42.3-2.45L42.3-2.45Q41.2 0.75 38.74 0.75L38.74 0.75ZM55.64-0.3L55.09-0.7 55.04-2.55Q54.99-3.35 54.99-4.35L54.99-4.35Q54.99-4.85 55.04-5.2L55.04-5.2 55.09-6.1Q55.09-6.6 54.89-7.3L54.89-7.3Q54.89-10.65 54.39-19.75L54.39-19.75Q53.89-28.55 53.84-31.7L53.84-31.7Q50.74-31.7 49.69-31.85L49.69-31.85Q48.69-32.1 48.69-32.65L48.69-32.65Q48.94-33.2 49.64-33.2L49.64-33.2Q51.14-33.2 53.99-33L53.99-33Q56.59-32.75 58.34-32.75L58.34-32.75 59.39-32.75 60.44-32.8Q61.34-32.8 61.34-32.15L61.34-32.15Q61.34-31.85 61.02-31.68 60.69-31.5 60.24-31.5L60.24-31.5Q59.24-31.5 58.14-31.6L58.14-31.6 55.99-31.7Q55.79-31.7 55.79-31.55L55.79-31.55Q55.74-31.4 55.74-30.6L55.74-30.6Q55.74-25.75 56.34-15.9L56.34-15.9Q56.89-5.7 56.89-1.25L56.89-1.25Q56.89-0.9 56.47-0.6 56.04-0.3 55.64-0.3L55.64-0.3ZM75.64 0.55Q75.64 0.05 74.14 0.05L74.14 0.05Q73.89-9.2 73.89-13.35L73.89-13.35 73.74-13.55 73.94-14Q73.94-14.9 73.74-15.85L73.74-15.85 72.99-16.05Q72.54-15.9 71.99-15.9L71.99-15.9Q71.59-15.9 70.34-16.15L70.34-16.15Q69.49-16.4 68.79-16.4L68.79-16.4 68.24-16.2Q68.24-14.45 68.19-13.05L68.19-13.05Q68.14-11.65 68.14-9.9L68.14-9.9 68.24-9.7Q68.24-8.3 68.39-5.5L68.39-5.5Q68.54-2.75 68.54-1.35L68.54-1.35Q68.54-0.8 68.34-0.43 68.14-0.05 67.74-0.05L67.74-0.05Q66.64-0.05 66.64-3.05L66.64-3.05Q66.64-5.6 66.69-7.65L66.69-7.65 66.74-12.2Q66.74-16.75 66.59-17.1L66.59-17.1Q66.84-17.6 66.84-20.4L66.84-20.4Q66.84-22.8 66.64-26.25L66.64-26.25 66.54-28.2 66.44-32.1Q66.44-32.45 66.69-32.75 66.94-33.05 67.29-33.05L67.29-33.05Q68.29-33.05 68.29-30.15L68.29-30.15Q68.29-26.75 68.24-24L68.24-24Q68.14-21.25 68.14-17.95L68.14-17.95Q68.14-17.35 71.94-17.35L71.94-17.35 72.14-17.35Q73.09-17.35 73.52-17.73 73.94-18.1 73.94-19L73.94-19Q73.94-21.65 73.59-25.9L73.59-25.9Q73.29-30.5 73.29-32.8L73.29-32.8Q73.29-33.1 73.54-33.33 73.79-33.55 74.14-33.55L74.14-33.55 74.59-33.4Q74.94-33.35 75.04-33.25L75.04-33.25Q75.04-29.35 75.34-21.6L75.34-21.6Q75.64-13.8 75.64-9.9L75.64-9.9Q75.64-4 75.99 0L75.99 0 75.64 0.55ZM72.49-17.95L72.49-18.05 72.59-17.95 72.49-17.95ZM86.94 0.65Q85.99 0.65 85.99-0.45L85.99-0.45 85.99-1.05Q86.04-1.25 86.04-1.55L86.04-1.55 86.04-1.8 85.14-7.85Q84.79-9.75 84.69-10.6L84.69-10.6Q84.24-14.1 83.74-18.4L83.74-18.4Q83.34-21.8 82.34-29.6L82.34-29.6 82.19-30.75Q81.44-36.4 81.09-36.95L81.09-36.95Q81.24-37.2 81.54-37.4 81.84-37.6 82.14-37.6L82.14-37.6Q82.89-37.6 83.16-37.35 83.44-37.1 83.44-36.45L83.44-36.45 83.44-36 83.44-35.5 83.44-34.95Q84.99-18.6 86.69-4.35L86.69-4.35 86.79-4.35Q86.94-5.8 87.39-12.3L87.39-12.3 87.49-13.75Q87.84-20.1 87.89-20.45L87.89-20.45Q88.04-21.95 88.49-24.85L88.49-24.85 89.09-28.9 89.24-31.2Q89.29-31.8 89.31-32.23 89.34-32.65 89.39-32.85L89.39-32.85 89.44-33.5Q89.44-33.55 89.51-33.65 89.59-33.75 89.74-33.85L89.74-33.85Q90.44-33.85 90.64-33.5L90.64-33.5Q90.79-33.35 90.84-33.18 90.89-33 90.89-32.75L90.89-32.75Q90.99-32.3 90.99-32.3L90.99-32.3Q91.49-29.65 93.14-18.5 94.79-7.35 95.14-3.8L95.14-3.8 95.29-3.7 97.14-23.95Q97.24-25.85 97.79-29.95L97.79-29.95Q98.29-34.1 98.29-36.7L98.29-36.7 98.24-37.2 98.24-37.65Q98.24-38.3 98.54-38.58 98.84-38.85 99.54-38.85L99.54-38.85Q99.84-38.85 100.16-38.6 100.49-38.35 100.49-38.05L100.49-38.05Q100.49-37.55 99.94-37.1L99.94-37.1Q99.99-37.05 99.99-36.8L99.99-36.8Q99.99-36.5 99.91-36.18 99.84-35.85 99.79-35.7L99.79-35.7Q99.24-31.2 98.44-22.45L98.44-22.45 97.44-12.1 97.04-8.15 96.44-3.1 96.19-0.55Q96.19 0.05 96.01 0.35 95.84 0.65 95.29 0.65L95.29 0.65Q94.49 0.65 94.34 0.05L94.34 0.05Q94.24-0.25 94.14-1.35L94.14-1.35 94.09-2.1Q92.89-9.8 90.49-29.5L90.49-29.5 90.34-29.6 90.29-29.55 90.29-29.5 87.79-2.2 87.79-1.3Q87.79 0.65 86.94 0.65L86.94 0.65ZM115.89 0.45Q115.14 0.45 114.94 0.28 114.74 0.1 114.64-0.65L114.64-0.65Q114.19-4.3 114.09-5.2L114.09-5.2 113.84-7.2Q112.74-7.45 111.34-7.45L111.34-7.45 109.54-7.55Q108.34-7.7 107.79-7.7L107.79-7.7Q107.49-7.7 107.44-7.45L107.44-7.45Q107.44-7.3 107.39-7.3L107.39-7.3 107.29-6.3Q107.24-5.4 106.74-2.7L106.74-2.7Q106.49-1.35 106.14-0.6L106.14-0.6Q105.74 0.25 105.39 0.25L105.39 0.25Q105.09 0.25 104.74-0.03 104.39-0.3 104.39-0.6L104.39-0.6 104.44-0.75 104.49-0.9Q105.39-4.45 105.99-7.95L105.99-7.95 106.59-11.05 107.19-14.85Q107.19-14.85 107.74-18.15L107.74-18.15Q107.99-19.5 108.64-22.5L108.64-22.5Q109.34-25.9 109.49-27.15L109.49-27.15Q109.54-27.3 109.69-29L109.69-29Q109.89-30.9 110.04-31.8L110.04-31.8Q110.19-33.1 110.34-33.3L110.34-33.3 110.69-33.3Q110.84-33.25 111.04-33.25L111.04-33.25Q111.64-33.25 111.94-33.55L111.94-33.55Q112.29-33.55 112.56-33.33 112.84-33.1 112.84-32.8L112.84-32.8Q112.84-30.4 113.19-27.3L113.19-27.3Q113.39-25.7 113.49-24.65L113.49-24.65Q114.04-18.2 116.29-0.45L116.29-0.45 116.29-0.3Q116.29 0.2 115.89 0.45L115.89 0.45ZM113.09-8.55L113.59-8.55Q113.09-15.75 111.69-29.8L111.69-29.8 108.99-16.45Q107.84-10.7 107.84-9.2L107.84-9.2Q107.84-8.95 109.74-8.75 111.64-8.55 113.09-8.55L113.09-8.55ZM126.13 0.6L125.58 0.15Q125.58-3.7 124.36-11.2 123.13-18.7 121.13-27.6L121.13-27.6 120.73-29.15 120.08-31.45Q119.78-32.5 119.78-32.75L119.78-32.75Q119.78-32.9 120.01-33.13 120.23-33.35 120.43-33.35L120.43-33.35Q121.13-33.35 121.53-31.8L121.53-31.8Q121.73-31.15 121.91-30.33 122.08-29.5 122.18-29.15L122.18-29.15Q122.28-28.4 122.33-28.25L122.33-28.25Q123.28-24.4 123.48-23.35L123.48-23.35 123.98-20.8 124.43-18.4 124.88-15.85Q125.03-14.5 125.28-13.5L125.28-13.5 126.03-8.6Q126.03-8.4 126.38-6.05L126.38-6.05 126.73-3.6Q127.73-6.85 128.43-13.5L128.43-13.5Q129.13-19.7 130.43-25.95L130.43-25.95Q131.53-31.35 131.98-33.8L131.98-33.8 132.63-34.05Q132.83-34 133.01-33.85 133.18-33.7 133.18-33.55L133.18-33.55Q133.18-32.45 132.73-30.55L132.73-30.55 132.43-29.25 131.58-25.3Q130.83-22.05 130.56-20.3 130.28-18.55 129.93-15.25L129.93-15.25 129.83-14.1Q129.58-11.4 129.46-10.45 129.33-9.5 128.88-8L128.88-8Q128.48-6.5 128.23-5.35L128.23-5.35 128.13-4.2Q128.03-2.45 127.73-1.1L127.73-1.1Q127.33 0.6 126.13 0.6L126.13 0.6ZM126.68-3.25L126.68-3.45 126.63-3.35 126.68-3.25ZM140.43 0.65Q139.53 0.65 139.43-0.4L139.43-0.4 139.43-1.05Q139.48-1.3 139.48-1.65L139.48-1.65 139.28-1.85Q139.68-2.9 139.68-3.9L139.68-3.9Q139.68-5.05 139.53-7.2L139.53-7.2 139.43-10.5Q139.43-13 139.58-18L139.58-18Q139.78-22.45 139.78-25.55L139.78-25.55 139.68-28.55Q139.58-29.9 139.58-31.55L139.58-31.55Q139.58-32.3 139.93-32.63 140.28-32.95 141.03-32.95L141.03-32.95Q141.53-32.95 141.83-32.65L141.83-32.65Q141.93-32.6 143.28-32.45L143.28-32.45Q144.53-32.3 145.43-32L145.43-32Q146.38-31.7 146.38-31.25L146.38-31.25Q146.38-30.75 145.43-30.25L145.43-30.25Q142.58-31.2 141.38-31.2L141.38-31.2 141.13-30.9Q141.18-30.45 141.18-28.75L141.18-28.75Q141.18-26.6 141.08-24.9L141.08-24.9Q141.03-23.15 141.03-21L141.03-21Q141.03-19.6 141.73-19.6L141.73-19.6 142.53-19.65Q142.93-19.7 143.38-19.7L143.38-19.7Q145.33-19.7 145.33-18.8L145.33-18.8Q145.33-18.25 145.08-17.88 144.83-17.5 144.33-17.5L144.33-17.5Q143.58-17.5 143.18-17.9L143.18-17.9 141.58-18.15 141.33-18.15 141.08-17.9 141.08-17.75Q141.18-16.9 141.18-13.8L141.18-13.8Q141.18-11.85 141.13-10.25L141.13-10.25 141.08-6.7Q141.08-4.75 141.23-2.7L141.23-2.7Q141.28-1.55 141.73-1.18 142.18-0.8 143.38-0.8L143.38-0.8 144.28-0.85Q144.73-0.9 145.28-0.9L145.28-0.9Q146.73-0.9 146.73-0.25L146.73-0.25Q146.73 0.65 144.53 0.65L144.53 0.65 140.43 0.65Z" opacity="1" transform="matrix(1,0,0,1,0,0)" fill="#0023ff" class="wordmark-text-0" data-fill-palette-color="primary" id="text-0"></path></svg></g></svg></g></svg></g></svg></g></svg></g></svg></g></svg></g></svg></g><defs></defs></svg><rect width="395.52" height="247.2" fill="none" stroke="none" visibility="hidden"></rect></g></svg></g></svg>